<svg xmlns="http://www.w3.org/2000/svg" xmlns:xlink="http://www.w3.org/1999/xlink" viewBox="0 0 595.28 841.89"><defs><style>.cls-1{fill:none;}.cls-1,.cls-2{stroke:#231f20;stroke-miterlimit:10;stroke-width:1.42px;}.cls-2{fill:#fff;}</style></defs><g id="Layer_4" data-name="Layer 4"><ellipse class="cls-1" cx="284.47" cy="522.01" rx="210.23" ry="57.44"/><path class="cls-1" d="M495.35,524.4a26.82,26.82,0,0,1-.76-4.17c-3.44-30.9-96.2-55.66-210.12-55.66-113.69,0-206.3,24.65-210.11,55.46a31.79,31.79,0,0,1-.82,4.56l-86.71,317.3L-67,911.62H340.45l241.66-69.73Z"/></g><g id="Layer_5" data-name="Layer 5"><image width="860" height="698" transform="matrix(-0.17, 0.01, 0.01, 0.17, 238.17, 240.33)" xlink:href="../../../../Documents/Thesis/graphic/sources/brain_cartoonColoured.png"/><path class="cls-2" d="M417.7,328.24c3.35-4.58,31.2-19.89,31.79-6.84.77,16.71-8.93,34.07-2.16,76.28.67,4.17,2.23,23.48-2,36.84C429.09,485.63,452.14,522.78,424,524c-9.92.43-10.91-67.71-17.26-102.51C402.08,396,400.6,351.6,417.7,328.24Z"/><path class="cls-2" d="M434.79,341c-3.25,8.42-15.23,86.67-9.06,89.39,16.46,7.26,22.13-34.83,23.75-46,1.3-9.05,3.63-35.73,2.82-41.73C449.81,324.06,437.06,335.1,434.79,341Z"/><circle class="cls-2" cx="432.28" cy="297.58" r="31.88" transform="translate(69.3 676.61) rotate(-80.78)"/><path class="cls-2" d="M376.89,244.27c0-14.52-20.44-26.3-45.66-26.3s-45.66,11.78-45.66,26.3,20.44,26.3,45.66,26.3a72.27,72.27,0,0,0,23.28-3.68l10.83,6.82-1.94-10.78C371.73,258.17,376.89,251.57,376.89,244.27Z"/><path class="cls-2" d="M278.69,186.09c-25.22,0-45.66,11.77-45.66,26.29,0,6.49,4.08,12.42,10.83,17l-3.28,11,13-6a71.25,71.25,0,0,0,25.15,4.35c25.22,0,45.66-11.77,45.66-26.3S303.91,186.09,278.69,186.09Z"/></g></svg>