<svg id="Layer_1" data-name="Layer 1" xmlns="http://www.w3.org/2000/svg" viewBox="0 0 171.79 189.9"><defs><style>.cls-1{fill:#ffac06;}.cls-2{font-size:21px;font-family:Avenir-MediumOblique, Avenir;font-weight:500;font-style:oblique;}</style></defs><path class="cls-1" d="M32.49,40.49c7.45,19.16,79.15,7.86,79.61,11.58.19,1.52-15.35,4-35.64,8.63C49.59,66.87,31.76,69,31.77,75.22c0,9.22,83.54,15.91,83.22,20.27-.29,4-72.2-6.56-80.33,14.47-4.76,12.35,13,34.16,21,31.84C73.32,136.67,68.73,27,69.26,10.09c0-.9-5.33,7.68-5.75,15.71-3.28,61.86,1.6,101.43-7.19,106-5,2.63-18.25-7.44-17-13.77,2.89-14.25,78.34-5.35,80.65-18.93.73-4.29-5.73-9.63-10.57-11.56C83.8,77.37,52.19,75.57,45,75.28A.15.15,0,0,1,45,75c9-1.5,56.57-9.71,72.29-18.16a5.08,5.08,0,0,0-1.23-9.59c-8.47-1.76-64.4-1.6-83.84-11.31C31.89,35.76,31.54,38,32.49,40.49Z" transform="translate(-31.77 -10.03)"/><text class="cls-2" transform="translate(43.17 107.43) rotate(90)">ila</text><text class="cls-2" transform="translate(97.07 94.65)">aumann</text></svg>